# AST/ASF file generated using VICON BodyLanguage
# -----------------------------------------------
:version 1.10
:name VICON
:units
  mass 1.0
  length 0.45
  angle deg
:documentation
   .ast/.asf automatically generated from VICON data using
   VICON BodyBuilder and BodyLanguage model FoxedUp or BRILLIANT.MOD
:root
   order TX TY TZ RX RY RZ
   axis XYZ
   position 0 0 0  
   orientation 0 0 0 
:bonedata
  begin
     id 1 
     name lhipjoint
     direction 0.716248 -0.617586 0.324924 
     length 2.63557 
     axis 0 0 0  XYZ
  end
  begin
     id 2 
     name lfemur
     direction 0.34202 -0.939693 0  
     length 7.01235  
     axis 0 0 20  XYZ
    dof rx ry rz
    limits (-160.0 20.0)
           (-70.0 70.0)
           (-60.0 70.0)
  end
  begin
     id 3 
     name ltibia
     direction 0.34202 -0.939693 0   
     length 8.14348   
     axis 0 0 20   XYZ
    dof rx
    limits (-10.0 170.0)
  end
  begin
     id 4 
     name lfoot
     direction 0.0982064 -0.26982 0.95789   
     length 1.99077   
     axis -90 7.62852e-016 20   XYZ
    dof rx rz
    limits (-45.0 90.0)
           (-70.0 20.0)
  end
  begin
     id 5 
     name ltoes
     direction 1.53511e-011 -4.21891e-011 1   
     length 0.99735   
     axis -90 7.62852e-016 20   XYZ
    dof rx
    limits (-90.0 20.0)
  end
  begin
     id 6 
     name rhipjoint
     direction -0.687828 -0.642391 0.337975   
     length 2.5338  
     axis 0 0 0  XYZ 
  end
  begin
     id 7 
     name rfemur
     direction -0.34202 -0.939693 0   
     length 6.90199   
     axis 0 0 -20   XYZ
    dof rx ry rz
    limits (-160.0 20.0)
           (-70.0 70.0)
           (-70.0 60.0)
  end
  begin
     id 8 
     name rtibia
     direction -0.34202 -0.939693 0   
     length 8.07725   
     axis 0 0 -20   XYZ
    dof rx
    limits (-10.0 170.0)
 end
 begin
     id 9 
     name rfoot
     direction -0.0912384 -0.250675 0.963762   
     length 2.11621  
     axis -90 -7.62852e-016 -20   XYZ
    dof rx rz
    limits (-45.0 90.0)
           (-20.0 70.0)
  end
  begin
     id 10 
     name rtoes
     direction -1.5359e-011 -4.21894e-011 1   
     length 1.06031   
     axis -90 -7.62852e-016 -20   XYZ
    dof rx
    limits (-90.0 20.0)
  end
  begin
     id 11 
     name lowerback
     direction -0.0403572 0.987953 -0.149396   
     length 2.05637   
     axis 0 0 0   XYZ
    dof rx ry rz
    limits (-20.0 45.0)
           (-30.0 30.0)
           (-30.0 30.0)
  end
  begin
     id 12 
     name upperback
     direction -0.00512151 0.997598 0.0690792   
     length 2.01086   
     axis 0 0 0   XYZ
    dof rx ry rz
    limits (-20.0 45.0)
           (-30.0 30.0)
           (-30.0 30.0)
  end
  begin
     id 13 
     name thorax
     direction 0.0136133 0.989392 0.14463   
     length 2.09035   
     axis 0 0 0   XYZ
    dof rx ry rz
    limits (-20.0 45.0)
           (-30.0 30.0)
           (-30.0 30.0)
  end
  begin
     id 14 
     name lowerneck
     direction 0.0250714 0.992811 0.11704   
     length 1.70806   
     axis 0 0 0   XYZ
    dof rx ry rz
    limits (-20.0 45.0)
           (-30.0 30.0)
           (-30.0 30.0)
  end
  begin
     id 15 
     name upperneck
     direction -0.0519205 0.998394 -0.0226787   
     length 1.6689   
     axis 0 0 0   XYZ
    dof rx ry rz
    limits (-20.0 45.0)
           (-30.0 30.0)
           (-30.0 30.0)
  end
  begin
     id 16
     name head
     direction -0.0201693 0.999547 -0.0223192  
     length 1.83412  
     axis 0 0 0   XYZ
    dof rx ry rz
    limits (-20.0 45.0)
           (-30.0 30.0)
           (-30.0 30.0)
  end
  begin
     id 17 
     name lclavicle
     direction 0.89585 0.444077 -0.0157448  
     length 3.39587  
     axis 0 0 0   XYZ
    dof ry rz
    limits (-20.0 10.0)
           (0.0 20.0)
  end
  begin
     id 18 
     name lhumerus
     direction 1 -4.48956e-011 1.99132e-028   
     length 5.79199   
     axis 180 -30 -90   XYZ
    dof rx ry rz
    limits (-60.0 90.0)
           (-90.0 90.0)
           (-90.0 90.0)
  end
  begin
     id 19
     name lradius
     direction 1 -4.48974e-011 8.72912e-028   
     length 3.49908   
     axis 180 -30 -90   XYZ
    dof rx
    limits (-10.0 170.0)
  end
  begin
     id 20
     name lwrist
     direction 1 -4.48994e-011 4.76442e-027   
     length 1.74954   
     axis -3.27502e-015 90 90   XYZ
    dof ry
    limits (-180.0 0.0)
 end
  begin
     id 21 
     name lhand
     direction 1 -4.48945e-011 9.531e-027   
     length 0.593861   
     axis -6.08098e-015 90 90   XYZ
    dof rx rz
    limits (-90.0 90.0)
           (-45.0 45.0)
  end
  begin
     id 22 
     name lfingers
     direction 1 -4.48945e-011 1.9062e-026   
     length 0.478786   
     axis -1.21619e-014 90 90   XYZ
    dof rx
    limits (0.0 90.0)
  end
  begin
     id 23
     name lthumb
     direction 0.707107 -6.34904e-011 0.707107   
     length 0.687444   
     axis -90 45 -9.86923e-015   XYZ
    dof rx rz
    limits (-45.0 45.0)
           (-45.0 45.0)
  end
  begin
     id 24 
     name rclavicle
     direction -0.940466 0.338394 0.0318182   
     length 3.51226  
     axis 0 0 0   XYZ 
    dof ry rz
    limits (-10.0 20.0)
           (-20.0 0.0)
  end
  begin
     id 25 
     name rhumerus
     direction -1 -4.48976e-011 2.0905e-027  
     length 5.73799   
     axis 180 30 90   XYZ
    dof rx ry rz
    limits (-90.0 60.0)
           (-90.0 90.0)
           (-90.0 90.0)
  end
  begin
     id 26 
     name rradius
     direction -1 -4.48968e-011 -9.39692e-029   
     length 3.57916   
     axis 180 30 90   XYZ
    dof rx
    limits (-10.0 170.0)
  end
  begin
     id 27 
     name rwrist
     direction -1 -4.48959e-011 4.7652e-027   
     length 1.78958   
     axis -3.27502e-015 -90 -90   XYZ
    dof ry
    limits (-180.0 0.0)
  end
  begin
     id 28
     name rhand
     direction -1 -4.49042e-011 9.5267e-027   
     length 0.615577   
     axis -6.08098e-015 -90 -90   XYZ
    dof rx rz
    limits (-90.0 90.0)
           (-45.0 45.0)
  end
  begin
     id 29
     name rfingers
     direction -1 -4.48935e-011 1.90629e-026   
     length 0.496294   
     axis -1.21619e-014 -90 -90   XYZ
    dof rx
    limits (0.0 90.0)
  end
  begin
     id 30
     name rthumb
     direction -0.707107 -6.34977e-011 0.707107   
     length 0.712582   
     axis -90 -45 9.86923e-015   XYZ
    dof rx rz
    limits (-45.0 45.0)
           (-45.0 45.0)
  end
:hierarchy
  begin
    root lhipjoint rhipjoint lowerback
    lhipjoint lfemur
    lfemur ltibia
    ltibia lfoot
    lfoot ltoes
    rhipjoint rfemur
    rfemur rtibia
    rtibia rfoot
    rfoot rtoes
    lowerback upperback
    upperback thorax
    thorax lowerneck lclavicle rclavicle
    lowerneck upperneck
    upperneck head
    lclavicle lhumerus
    lhumerus lradius
    lradius lwrist
    lwrist lhand lthumb
    lhand lfingers
    rclavicle rhumerus
    rhumerus rradius
    rradius rwrist
    rwrist rhand rthumb
    rhand rfingers
  end

#!OML:ASF H:\Terrain\Patient Classification 1\PaulMetrics\March17Take5\PaulMetrics.ASF
:FULLY-SPECIFIED
:DEGREES
1496
root 14.6182 17.4998 -15.3606 -0.115567 -57.1468 8.43071
lowerback 0.904532 0.172123 -6.98852
upperback -2.74592 -0.00731142 -0.909942
thorax -3.35714 0.157901 2.97448
lowerneck -5.94 0.196422 1.24968
upperneck 7.41764 0.390822 -3.12322
head 3.46334 0.0937461 -1.22925
rclavicle 2.87725e-014 7.45443e-015
rhumerus 0.669488 17.2791 -64.749
rradius 79.528
rwrist 15.1069
rhand -37.4637 -32.168
rfingers 7.12502
rthumb -10.5219 -61.8847
lclavicle 2.87725e-014 7.45443e-015
lhumerus -33.7393 -1.07724 80.1406
lradius 33.3327
lwrist 14.0014
lhand -13.1674 -20.9137
lfingers 7.12502
lthumb 12.9318 8.66558
rfemur -8.70306 6.3108 13.4062
rtibia 21.2744
rfoot -17.9647 -24.1731
rtoes -10.7429
lfemur -15.2595 -4.9853 -15.5736
ltibia 22.3075
lfoot -15.3239 11.0389
ltoes -0.936985
1497
root 14.6255 17.5036 -15.3561 -0.5563 -57.3912 8.91229
lowerback 0.96014 0.193732 -7.10063
upperback -2.75311 0.00766134 -1.04206
thorax -3.39863 0.167126 2.89943
lowerneck -5.79132 0.230048 1.23912
upperneck 7.26366 0.424587 -2.99836
head 3.38071 0.117596 -1.18203
rclavicle 5.48553e-014 -2.23633e-014
rhumerus 0.640921 18.4877 -64.8821
rradius 79.7969
rwrist 15.5407
rhand -37.2649 -31.5287
rfingers 7.12502
rthumb -10.3302 -61.255
lclavicle 5.48553e-014 -2.23633e-014
lhumerus -33.7316 -0.93419 79.9104
lradius 33.2002
lwrist 13.8311
lhand -12.6449 -20.7142
lfingers 7.12502
lthumb 13.4355 8.83249
rfemur -8.77832 6.32601 13.0806
rtibia 21.3691
rfoot -17.8538 -23.7681
rtoes -9.56138
lfemur -15.1303 -4.9207 -15.8942
ltibia 22.2177
lfoot -15.1697 11.307
ltoes -1.84223
1498
root 14.6282 17.5023 -15.3593 -0.211344 -57.4959 8.59007
lowerback 0.956687 0.185665 -6.97231
upperback -2.80797 -0.000344062 -0.992414
thorax -3.45204 0.163506 2.87941
lowerneck -5.86819 0.286935 1.49719
upperneck 7.40135 0.492731 -3.16067
head 3.44858 0.150585 -1.2804
rclavicle 3.15353e-014 -2.61402e-014
rhumerus 0.781999 19.7257 -64.9541
rradius 79.9134
rwrist 15.8409
rhand -37.184 -31.481
rfingers 7.12502
rthumb -10.2522 -61.2111
lclavicle 3.15353e-014 -2.61402e-014
lhumerus -33.7061 -0.691286 79.6648
lradius 33.0273
lwrist 13.8686
lhand -11.5829 -20.5093
lfingers 7.12502
lthumb 14.4589 8.96694
rfemur -8.86664 6.56687 13.2684
rtibia 21.3332
rfoot -17.7629 -23.806
rtoes -10.2722
lfemur -15.1876 -4.93875 -15.677
ltibia 22.2363
lfoot -15.4727 11.3599
ltoes -0.0526593
1499
root 14.629 17.5004 -15.3617 0.52651 -57.7008 7.79461
lowerback 0.921237 0.231714 -6.61938
upperback -2.83851 0.079734 -0.815558
thorax -3.4688 0.198585 2.86234
lowerneck -6.11895 0.305873 1.5772
upperneck 7.65587 0.527276 -3.32213
head 3.58942 0.15953 -1.35093
rclavicle -2.14719e-014 1.05853e-014
rhumerus 1.15929 20.7663 -65.0046
rradius 79.9044
rwrist 16.4448
rhand -37.277 -31.4076
rfingers 7.12502
rthumb -10.3419 -61.1334
lclavicle -2.14719e-014 1.05853e-014
lhumerus -33.6656 -0.391069 79.6386
lradius 32.8208
lwrist 13.6665
lhand -11.007 -20.7324
lfingers 7.12502
lthumb 15.0138 8.7033
rfemur -8.98969 6.92295 13.7502
rtibia 21.3004
rfoot -17.6168 -24.0685
rtoes -11.8055
lfemur -15.2126 -5.0524 -15.1575
ltibia 22.2616
lfoot -16.0137 11.495
ltoes 2.49479
1500
root 14.6318 17.503 -15.3585 0.635056 -58.0611 7.64207
lowerback 0.955226 0.340108 -6.49622
upperback -2.84417 0.226569 -0.775321
thorax -3.50721 0.270491 2.82912
lowerneck -6.0259 0.286461 1.34867
upperneck 7.55257 0.506932 -3.15149
head 3.5311 0.151303 -1.25252
rclavicle -3.27187e-014 -1.04362e-015
rhumerus 1.53473 21.7868 -65.0852
rradius 79.9334
rwrist 17.0905
rhand -37.548 -31.0841
rfingers 7.12502
rthumb -10.6033 -60.7966
lclavicle -3.27187e-014 -1.04362e-015
lhumerus -33.6193 -0.513406 79.7374
lradius 32.702
lwrist 13.832
lhand -10.5077 -20.795
lfingers 7.12502
lthumb 15.4947 8.60408
rfemur -9.04363 7.28816 13.8242
rtibia 21.2525
rfoot -17.6081 -24.0851
rtoes -11.4095
lfemur -15.1638 -5.08771 -15.0537
ltibia 22.299
lfoot -16.1106 11.8469
ltoes 1.77138
1501
root 14.6379 17.5058 -15.3556 0.130317 -58.4785 8.13377
lowerback 1.09126 0.457321 -6.67227
upperback -2.84475 0.362666 -0.875324
thorax -3.60017 0.343909 2.81735
lowerneck -5.90715 0.29726 1.40943
upperneck 7.44845 0.513428 -3.1399
head 3.47221 0.158442 -1.25752
rclavicle 7.06338e-014 -9.59136e-015
rhumerus 1.88848 22.9118 -65.1045
rradius 80.0698
rwrist 17.4996
rhand -37.6165 -30.7093
rfingers 7.12502
rthumb -10.6693 -60.4184
lclavicle 7.06338e-014 -9.59136e-015
lhumerus -33.6322 -1.00591 79.8301
lradius 32.718
lwrist 14.3741
lhand -10.296 -20.5537
lfingers 7.12502
lthumb 15.6986 8.82946
rfemur -9.02036 7.65864 13.5227
rtibia 21.1657
rfoot -17.6364 -24.0863
rtoes -11.3027
lfemur -15.0424 -5.01585 -15.3396
ltibia 22.3447
lfoot -16.0106 12.188
ltoes 0.00244134
1502
root 14.6459 17.5079 -15.3573 -0.217333 -58.8442 8.46485
lowerback 1.25692 0.464568 -6.89371
upperback -2.87842 0.349268 -0.879873
thorax -3.73135 0.347962 2.93571
lowerneck -5.85886 0.428256 1.57118
upperneck 7.45621 0.679274 -3.19569
head 3.472 0.24327 -1.29683
rclavicle -7.05546e-014 6.31141e-015
rhumerus 2.51634 24.2479 -64.9927
rradius 80.1599
rwrist 17.9945
rhand -37.2519 -30.0131
rfingers 7.12502
rthumb -10.3177 -59.74
lclavicle -7.05546e-014 6.31141e-015
lhumerus -33.7514 -0.972428 79.8539
lradius 32.6923
lwrist 14.8113
lhand -10.8124 -20.4219
lfingers 7.12502
lthumb 15.2012 8.99965
rfemur -9.07222 7.92263 13.3396
rtibia 21.1554
rfoot -17.5786 -24.1451
rtoes -12.2385
lfemur -14.8761 -4.92099 -15.518
ltibia 22.2753
lfoot -15.9719 12.4654
ltoes -0.761258
1503
root 14.6543 17.5104 -15.3541 -0.0352516 -59.1304 8.27546
lowerback 1.29403 0.440882 -6.74462
upperback -2.91961 0.318886 -0.839351
thorax -3.79045 0.332044 2.89545
lowerneck -5.73385 0.537985 1.63859
upperneck 7.35488 0.818749 -3.18898
head 3.41701 0.316204 -1.29848
rclavicle 4.9502e-014 -8.15017e-015
rhumerus 3.23406 25.6124 -64.7915
rradius 80.2457
rwrist 18.4684
rhand -37.586 -29.8454
rfingers 7.12502
rthumb -10.6399 -59.556
lclavicle 4.9502e-014 -8.15017e-015
lhumerus -33.7679 -0.778141 79.8008
lradius 32.5267
lwrist 14.9514
lhand -11.495 -20.3009
lfingers 7.12502
lthumb 14.5436 9.16925
rfemur -9.25868 7.94804 13.4258
rtibia 21.2645
rfoot -17.4054 -24.0211
rtoes -13.0056
lfemur -14.7425 -4.80114 -15.4113
ltibia 22.0815
lfoot -15.9674 12.6408
ltoes -0.722195
1504
root 14.6627 17.5196 -15.3464 0.0458383 -59.4485 8.22714
lowerback 1.28747 0.521216 -6.48881
upperback -2.94607 0.430617 -0.914386
thorax -3.8208 0.380126 2.66925
lowerneck -5.76431 0.542682 1.78901
upperneck 7.37284 0.816431 -3.24654
head 3.43127 0.316784 -1.34491
rclavicle -2.448e-014 1.24737e-014
rhumerus 3.79803 26.686 -64.5576
rradius 80.4208
rwrist 18.8963
rhand -38.6335 -30.4696
rfingers 7.12502
rthumb -11.6502 -60.1257
lclavicle -2.448e-014 1.24737e-014
lhumerus -33.7367 -1.15694 79.7853
lradius 32.4949
lwrist 14.8528
lhand -11.6476 -19.8985
lfingers 7.12502
lthumb 14.3966 9.58225
rfemur -9.45226 8.13095 13.383
rtibia 21.3495
rfoot -17.6999 -23.5995
rtoes -11.0318
lfemur -14.6341 -4.67105 -15.3965
ltibia 21.925
lfoot -16.0753 12.7502
ltoes 0.0585631
1505
root 14.6709 17.5299 -15.3455 -0.237046 -59.7686 8.64893
lowerback 1.28758 0.611389 -6.50175
upperback -2.98641 0.540863 -1.08005
thorax -3.87207 0.433948 2.49909
lowerneck -5.76835 0.524189 1.85937
upperneck 7.34118 0.776054 -3.13523
head 3.41927 0.303738 -1.32211
rclavicle 6.3462e-014 6.95746e-016
rhumerus 4.41275 27.4181 -64.3865
rradius 80.5719
rwrist 19.7209
rhand -39.4025 -30.4553
rfingers 7.12502
rthumb -12.3918 -60.068
lclavicle 6.3462e-014 6.95746e-016
lhumerus -33.6644 -1.51638 79.6932
lradius 32.409
lwrist 14.7539
lhand -11.4366 -19.7612
lfingers 7.12502
lthumb 14.5999 9.70496
rfemur -9.6546 8.54591 13.0927
rtibia 21.3631
rfoot -18.0659 -23.2529
rtoes -8.14749
lfemur -14.6274 -4.52456 -15.6193
ltibia 21.8407
lfoot -16.0773 12.9395
ltoes -0.446866
1506
root 14.6759 17.5324 -15.3441 -0.126917 -59.9619 8.60034
lowerback 1.28788 0.717673 -6.1537
upperback -3.02295 0.683662 -1.28432
thorax -3.91385 0.492187 2.08605
lowerneck -5.75108 0.456794 1.97815
upperneck 7.31141 0.6612 -2.96199
head 3.40146 0.25785 -1.29084
rclavicle 1.85367e-014 -1.8487e-014
rhumerus 4.98882 27.7687 -64.378
rradius 80.6206
rwrist 20.6588
rhand -39.733 -29.5754
rfingers 7.12502
rthumb -12.7104 -59.1686
lclavicle 1.85367e-014 -1.8487e-014
lhumerus -33.4117 -1.85872 79.4631
lradius 32.1316
lwrist 14.4205
lhand -10.9465 -19.7751
lfingers 7.12502
lthumb 15.0721 9.65619
rfemur -9.80418 8.71756 13.099
rtibia 21.4006
rfoot -18.1325 -23.3077
rtoes -8.33426
lfemur -14.611 -4.21849 -15.5972
ltibia 21.724
lfoot -15.8762 12.9758
ltoes -2.00988
